<svg width="24" height="24" viewBox="0 0 24 24" fill="none" xmlns="http://www.w3.org/2000/svg">
<path d="M6.99996 17H17C17.2 17 17.35 16.9083 17.45 16.725C17.55 16.5417 17.5333 16.3667 17.4 16.2L14.65 12.525C14.55 12.3917 14.4166 12.325 14.25 12.325C14.0833 12.325 13.95 12.3917 13.85 12.525L11.25 16L9.39996 13.525C9.29996 13.3917 9.16663 13.325 8.99996 13.325C8.8333 13.325 8.69996 13.3917 8.59996 13.525L6.59996 16.2C6.46663 16.3667 6.44996 16.5417 6.54996 16.725C6.64996 16.9083 6.79996 17 6.99996 17Z" fill="black"/>
<path d="M4.99996 21C4.44996 21 3.97913 20.8042 3.58746 20.4125C3.19579 20.0208 2.99996 19.55 2.99996 19L2.99999 14.75C2.99999 14.1977 3.44771 13.75 3.99999 13.75V13.75C4.55228 13.75 4.99999 14.1977 4.99999 14.75L4.99996 19H19V5H4.99996L4.99997 5.57498C4.99999 6.12727 4.55227 6.575 3.99997 6.575V6.575C3.4477 6.575 2.99998 6.1273 2.99997 5.57502L2.99996 5C2.99996 4.45 3.19579 3.97917 3.58746 3.5875C3.97913 3.19583 4.44996 3 4.99996 3H19C19.55 3 20.0208 3.19583 20.4125 3.5875C20.8041 3.97917 21 4.45 21 5V19C21 19.55 20.8041 20.0208 20.4125 20.4125C20.0208 20.8042 19.55 21 19 21H4.99996Z" fill="black"/>
<path d="M6.07502 11.1625H2C1.44771 11.1625 1 10.7148 1 10.1625V10.1625V10.1625C1 9.61022 1.44772 9.1625 2 9.1625H6.07502L5.17502 8.2625C4.97502 8.0625 4.87919 7.82917 4.88752 7.5625C4.89586 7.29583 5.00002 7.0625 5.20002 6.8625C5.40002 6.67917 5.63335 6.58333 5.90002 6.575C6.16669 6.56667 6.40002 6.6625 6.60002 6.8625L9.20002 9.4625C9.40002 9.6625 9.50002 9.89583 9.50002 10.1625C9.50002 10.4292 9.40002 10.6625 9.20002 10.8625L6.60002 13.4625C6.41669 13.6458 6.18752 13.7417 5.91252 13.75C5.63752 13.7583 5.40002 13.6625 5.20002 13.4625C5.01669 13.2792 4.92502 13.0458 4.92502 12.7625C4.92502 12.4792 5.01669 12.2458 5.20002 12.0625L6.07502 11.1625Z" fill="black"/>
</svg>
