<svg width="24" height="24" viewBox="0 0 24 24" fill="none" xmlns="http://www.w3.org/2000/svg">
<path fill-rule="evenodd" clip-rule="evenodd" d="M8.7875 16.2625C8.04583 16.0875 7.28333 16 6.5 16C5.9 16 5.3125 16.05 4.7375 16.15C4.1625 16.25 3.58333 16.4 3 16.6V15C3 14.4477 2.55228 14 2 14V14C1.44771 14 1 14.4477 1 15V18.15C1 18.5333 1.1625 18.825 1.4875 19.025C1.8125 19.225 2.15 19.2333 2.5 19.05C3.11667 18.7167 3.7625 18.4583 4.4375 18.275C5.1125 18.0917 5.8 18 6.5 18C7.25 18 7.98333 18.0958 8.7 18.2875C9.41666 18.4792 10.1 18.7667 10.75 19.15C10.9333 19.25 11.1292 19.3292 11.3375 19.3875C11.5458 19.4458 11.7667 19.475 12 19.475C12.2333 19.475 12.4542 19.4458 12.6625 19.3875C12.8708 19.3292 13.0667 19.25 13.25 19.15C13.9 18.7667 14.5833 18.4792 15.3 18.2875C16.0167 18.0958 16.75 18 17.5 18C18.2 18 18.8875 18.0917 19.5625 18.275C20.2375 18.4583 20.8833 18.7167 21.5 19.05C21.85 19.2333 22.1875 19.225 22.5125 19.025C22.8375 18.825 23 18.5333 23 18.15V6.1C23 5.91667 22.9542 5.74167 22.8625 5.575C22.7708 5.40833 22.6333 5.28333 22.45 5.2C21.6833 4.8 20.8833 4.5 20.05 4.3C19.2167 4.1 18.3667 4 17.5 4C16.5333 4 15.5875 4.125 14.6625 4.375C13.7375 4.625 12.85 5 12 5.5C11.15 5 10.2625 4.625 9.3375 4.375C8.4125 4.125 7.46666 4 6.5 4C5.63333 4 4.78333 4.1 3.95 4.3C3.11666 4.5 2.31667 4.8 1.55 5.2C1.36667 5.28333 1.22917 5.40833 1.1375 5.575C1.04583 5.74167 1 5.91667 1 6.1V8C1 8.55228 1.44771 9 2 9V9C2.55228 9 3 8.55229 3 8V6.7C3.55 6.46667 4.12083 6.29167 4.7125 6.175C5.30416 6.05833 5.9 6 6.5 6C7.28333 6 8.05833 6.1 8.825 6.3C9.59167 6.5 10.3167 6.8 11 7.2V17.05C10.2667 16.7 9.52916 16.4375 8.7875 16.2625ZM15.2125 16.2625C14.4708 16.4375 13.7333 16.7 13 17.05V7.2C13.6833 6.8 14.4083 6.5 15.175 6.3C15.9417 6.1 16.7167 6 17.5 6C18.1 6 18.6958 6.05833 19.2875 6.175C19.8792 6.29167 20.45 6.46667 21 6.7V16.6C20.4167 16.4 19.8375 16.25 19.2625 16.15C18.6875 16.05 18.1 16 17.5 16C16.7167 16 15.9542 16.0875 15.2125 16.2625Z" fill="black"/>
<path d="M5.07502 12.488H0.999999C0.447714 12.488 0 12.0403 0 11.488C0 10.9357 0.447715 10.488 1 10.488H5.07502L4.17502 9.588C3.97502 9.388 3.87919 9.15467 3.88752 8.888C3.89586 8.62133 4.00002 8.388 4.20002 8.188C4.40002 8.00467 4.63335 7.90883 4.90002 7.9005C5.16669 7.89217 5.40002 7.988 5.60002 8.188L8.20002 10.788C8.40002 10.988 8.50002 11.2213 8.50002 11.488C8.50002 11.7547 8.40002 11.988 8.20002 12.188L5.60002 14.788C5.41669 14.9713 5.18752 15.0672 4.91252 15.0755C4.63752 15.0838 4.40002 14.988 4.20002 14.788C4.01669 14.6047 3.92502 14.3713 3.92502 14.088C3.92502 13.8047 4.01669 13.5713 4.20002 13.388L5.07502 12.488Z" fill="black"/>
</svg>
