<svg width="24" height="24" viewBox="0 0 24 24" fill="none" xmlns="http://www.w3.org/2000/svg">
<path d="M10.1248 22C9.87485 22 9.65818 21.9167 9.47485 21.75C9.29152 21.5833 9.18318 21.375 9.14985 21.125L8.84985 18.8C8.63318 18.7167 8.42902 18.6167 8.23735 18.5C8.04568 18.3833 7.85818 18.2583 7.67485 18.125L5.49985 19.025C5.26652 19.125 5.03318 19.1375 4.79985 19.0625C4.56652 18.9875 4.38318 18.8417 4.24985 18.625L2.39985 15.4C2.26652 15.1833 2.22485 14.95 2.27485 14.7C2.32485 14.45 2.44985 14.25 2.64985 14.1L4.52485 12.675C4.50818 12.5583 4.49985 12.4458 4.49985 12.3375V11.6625C4.49985 11.5542 4.50818 11.4417 4.52485 11.325L2.64985 9.9C2.44985 9.75 2.32485 9.55 2.27485 9.3C2.22485 9.05 2.26652 8.81667 2.39985 8.6L4.24985 5.375C4.38318 5.15833 4.56652 5.0125 4.79985 4.9375C5.03318 4.8625 5.26652 4.875 5.49985 4.975L7.67485 5.875C7.85818 5.74167 8.04985 5.61667 8.24985 5.5C8.44985 5.38333 8.64985 5.28333 8.84985 5.2L9.14985 2.875C9.18318 2.625 9.29152 2.41667 9.47485 2.25C9.65818 2.08333 9.87485 2 10.1248 2H13.8748C14.1248 2 14.3415 2.08333 14.5248 2.25C14.7082 2.41667 14.8165 2.625 14.8498 2.875L15.1498 5.2C15.3665 5.28333 15.5707 5.38333 15.7623 5.5C15.954 5.61667 16.1415 5.74167 16.3248 5.875L18.4998 4.975C18.7332 4.875 18.9665 4.8625 19.1998 4.9375C19.4332 5.0125 19.6165 5.15833 19.7498 5.375L21.5998 8.6C21.7332 8.81667 21.7748 9.05 21.7248 9.3C21.6748 9.55 21.5498 9.75 21.3498 9.9L19.4748 11.325C19.4915 11.4417 19.4998 11.5542 19.4998 11.6625V12.3375C19.4998 12.4458 19.4832 12.5583 19.4498 12.675L21.3248 14.1C21.5248 14.25 21.6498 14.45 21.6998 14.7C21.7498 14.95 21.7082 15.1833 21.5748 15.4L19.7248 18.6C19.5915 18.8167 19.404 18.9667 19.1623 19.05C18.9207 19.1333 18.6832 19.125 18.4498 19.025L16.3248 18.125C16.1415 18.2583 15.9498 18.3833 15.7498 18.5C15.5498 18.6167 15.3498 18.7167 15.1498 18.8L14.8498 21.125C14.8165 21.375 14.7082 21.5833 14.5248 21.75C14.3415 21.9167 14.1248 22 13.8748 22H10.1248ZM10.9998 20H12.9748L13.3248 17.35C13.8415 17.2167 14.3207 17.0208 14.7623 16.7625C15.204 16.5042 15.6082 16.1917 15.9748 15.825L18.4498 16.85L19.4248 15.15L17.2748 13.525C17.3582 13.2917 17.4165 13.0458 17.4498 12.7875C17.4832 12.5292 17.4998 12.2667 17.4998 12C17.4998 11.7333 17.4832 11.4708 17.4498 11.2125C17.4165 10.9542 17.3582 10.7083 17.2748 10.475L19.4248 8.85L18.4498 7.15L15.9748 8.2C15.6082 7.81667 15.204 7.49583 14.7623 7.2375C14.3207 6.97917 13.8415 6.78333 13.3248 6.65L12.9998 4H11.0248L10.6748 6.65C10.1582 6.78333 9.67902 6.97917 9.23735 7.2375C8.79568 7.49583 8.39152 7.80833 8.02485 8.175L5.54985 7.15L4.57485 8.85L6.72485 10.45C6.64152 10.7 6.58318 10.95 6.54985 11.2C6.51652 11.45 6.49985 11.7167 6.49985 12C6.49985 12.2667 6.51652 12.525 6.54985 12.775C6.58318 13.025 6.64152 13.275 6.72485 13.525L4.57485 15.15L5.54985 16.85L8.02485 15.8C8.39152 16.1833 8.79568 16.5042 9.23735 16.7625C9.67902 17.0208 10.1582 17.2167 10.6748 17.35L10.9998 20ZM12.0498 15.5C13.0165 15.5 13.8415 15.1583 14.5248 14.475C15.2082 13.7917 15.5498 12.9667 15.5498 12C15.5498 11.0333 15.2082 10.2083 14.5248 9.525C13.8415 8.84167 13.0165 8.5 12.0498 8.5C11.0665 8.5 10.2373 8.84167 9.56235 9.525C8.88735 10.2083 8.54985 11.0333 8.54985 12C8.54985 12.9667 8.88735 13.7917 9.56235 14.475C10.2373 15.1583 11.0665 15.5 12.0498 15.5Z" fill="black"/>
</svg>
