<svg width="64" height="64" viewBox="0 0 64 64" fill="none" xmlns="http://www.w3.org/2000/svg">
<path d="M18.6665 56C17.1998 56 15.9443 55.4778 14.8998 54.4333C13.8554 53.3889 13.3332 52.1333 13.3332 50.6667V16C12.5776 16 11.9443 15.7444 11.4332 15.2333C10.9221 14.7222 10.6665 14.0889 10.6665 13.3333C10.6665 12.5778 10.9221 11.9444 11.4332 11.4333C11.9443 10.9222 12.5776 10.6667 13.3332 10.6667H23.9998C23.9998 9.91111 24.2554 9.27778 24.7665 8.76667C25.2776 8.25556 25.9109 8 26.6665 8H37.3332C38.0887 8 38.7221 8.25556 39.2332 8.76667C39.7443 9.27778 39.9998 9.91111 39.9998 10.6667H50.6665C51.4221 10.6667 52.0554 10.9222 52.5665 11.4333C53.0776 11.9444 53.3332 12.5778 53.3332 13.3333C53.3332 14.0889 53.0776 14.7222 52.5665 15.2333C52.0554 15.7444 51.4221 16 50.6665 16V50.6667C50.6665 52.1333 50.1443 53.3889 49.0998 54.4333C48.0554 55.4778 46.7998 56 45.3332 56H18.6665ZM45.3332 16H18.6665V50.6667H45.3332V16ZM26.6665 45.3333C27.4221 45.3333 28.0554 45.0778 28.5665 44.5667C29.0776 44.0556 29.3332 43.4222 29.3332 42.6667V24C29.3332 23.2444 29.0776 22.6111 28.5665 22.1C28.0554 21.5889 27.4221 21.3333 26.6665 21.3333C25.9109 21.3333 25.2776 21.5889 24.7665 22.1C24.2554 22.6111 23.9998 23.2444 23.9998 24V42.6667C23.9998 43.4222 24.2554 44.0556 24.7665 44.5667C25.2776 45.0778 25.9109 45.3333 26.6665 45.3333ZM37.3332 45.3333C38.0887 45.3333 38.7221 45.0778 39.2332 44.5667C39.7443 44.0556 39.9998 43.4222 39.9998 42.6667V24C39.9998 23.2444 39.7443 22.6111 39.2332 22.1C38.7221 21.5889 38.0887 21.3333 37.3332 21.3333C36.5776 21.3333 35.9443 21.5889 35.4332 22.1C34.9221 22.6111 34.6665 23.2444 34.6665 24V42.6667C34.6665 43.4222 34.9221 44.0556 35.4332 44.5667C35.9443 45.0778 36.5776 45.3333 37.3332 45.3333Z" fill="black"/>
</svg>
