<svg width="64" height="64" viewBox="0 0 64 64" fill="none" xmlns="http://www.w3.org/2000/svg">
<path d="M18.6667 56H13.3333C11.8667 56 10.6111 55.4778 9.56667 54.4333C8.52222 53.3889 8 52.1333 8 50.6667V32C8 28.6667 8.63333 25.5444 9.9 22.6333C11.1667 19.7222 12.8778 17.1889 15.0333 15.0333C17.1889 12.8778 19.7222 11.1667 22.6333 9.9C25.5444 8.63333 28.6667 8 32 8C35.3333 8 38.4556 8.63333 41.3667 9.9C44.2778 11.1667 46.8111 12.8778 48.9667 15.0333C51.1222 17.1889 52.8333 19.7222 54.1 22.6333C55.3667 25.5444 56 28.6667 56 32V50.6667C56 52.1333 55.4778 53.3889 54.4333 54.4333C53.3889 55.4778 52.1333 56 50.6667 56H45.3333C43.8667 56 42.6111 55.4778 41.5667 54.4333C40.5222 53.3889 40 52.1333 40 50.6667V40C40 38.5333 40.5222 37.2778 41.5667 36.2333C42.6111 35.1889 43.8667 34.6667 45.3333 34.6667H50.6667V32C50.6667 26.8 48.8556 22.3889 45.2333 18.7667C41.6111 15.1444 37.2 13.3333 32 13.3333C26.8 13.3333 22.3889 15.1444 18.7667 18.7667C15.1444 22.3889 13.3333 26.8 13.3333 32V34.6667H18.6667C20.1333 34.6667 21.3889 35.1889 22.4333 36.2333C23.4778 37.2778 24 38.5333 24 40V50.6667C24 52.1333 23.4778 53.3889 22.4333 54.4333C21.3889 55.4778 20.1333 56 18.6667 56ZM18.6667 40H13.3333V50.6667H18.6667V40ZM45.3333 40V50.6667H50.6667V40H45.3333Z" fill="black"/>
</svg>
