<svg width="64" height="64" viewBox="0 0 64 64" fill="none" xmlns="http://www.w3.org/2000/svg">
<path d="M18.6668 61.3333C17.2002 61.3333 15.9446 60.8111 14.9002 59.7667C13.8557 58.7222 13.3335 57.4667 13.3335 56V8C13.3335 6.53333 13.8557 5.27778 14.9002 4.23333C15.9446 3.18889 17.2002 2.66667 18.6668 2.66667H45.3335C46.8002 2.66667 48.0557 3.18889 49.1002 4.23333C50.1446 5.27778 50.6668 6.53333 50.6668 8V56C50.6668 57.4667 50.1446 58.7222 49.1002 59.7667C48.0557 60.8111 46.8002 61.3333 45.3335 61.3333H18.6668ZM18.6668 48V56H45.3335V48H18.6668ZM32.0002 54.6667C32.7557 54.6667 33.3891 54.4111 33.9002 53.9C34.4113 53.3889 34.6668 52.7556 34.6668 52C34.6668 51.2444 34.4113 50.6111 33.9002 50.1C33.3891 49.5889 32.7557 49.3333 32.0002 49.3333C31.2446 49.3333 30.6113 49.5889 30.1002 50.1C29.5891 50.6111 29.3335 51.2444 29.3335 52C29.3335 52.7556 29.5891 53.3889 30.1002 53.9C30.6113 54.4111 31.2446 54.6667 32.0002 54.6667ZM18.6668 42.6667H45.3335V16H18.6668V42.6667ZM18.6668 10.6667H45.3335V8H18.6668V10.6667Z" fill="black"/>
</svg>
