<svg width="64" height="64" viewBox="0 0 64 64" fill="none" xmlns="http://www.w3.org/2000/svg">
<path d="M31.9998 58.4C31.6887 58.4 31.3998 58.3778 31.1332 58.3333C30.8665 58.2889 30.5998 58.2222 30.3332 58.1333C24.3332 56.1333 19.5554 52.4333 15.9998 47.0333C12.4443 41.6333 10.6665 35.8222 10.6665 29.6V17C10.6665 15.8889 10.9887 14.8889 11.6332 14C12.2776 13.1111 13.1109 12.4667 14.1332 12.0667L30.1332 6.06667C30.7554 5.84445 31.3776 5.73334 31.9998 5.73334C32.6221 5.73334 33.2443 5.84445 33.8665 6.06667L49.8665 12.0667C50.8887 12.4667 51.7221 13.1111 52.3665 14C53.0109 14.8889 53.3332 15.8889 53.3332 17V29.6C53.3332 35.8222 51.5554 41.6333 47.9998 47.0333C44.4443 52.4333 39.6665 56.1333 33.6665 58.1333C33.3998 58.2222 33.1332 58.2889 32.8665 58.3333C32.5998 58.3778 32.3109 58.4 31.9998 58.4ZM31.9998 53.0667C36.6221 51.6 40.4443 48.6667 43.4665 44.2667C46.4887 39.8667 47.9998 34.9778 47.9998 29.6V17L31.9998 11L15.9998 17V29.6C15.9998 34.9778 17.5109 39.8667 20.5332 44.2667C23.5554 48.6667 27.3776 51.6 31.9998 53.0667Z" fill="black"/>
</svg>
