<svg width="24" height="24" viewBox="0 0 24 24" fill="none" xmlns="http://www.w3.org/2000/svg">
<path d="M3.40048 17C2.72285 17 2.25381 16.3232 2.49174 15.6887L5.37254 8.00656C5.59959 7.40111 6.17838 7 6.825 7V7C7.47162 7 8.05041 7.4011 8.27746 8.00655L11.1668 15.7115C11.4006 16.335 10.9397 17 10.2739 17V17C9.86999 17 9.50987 16.7455 9.37501 16.3647L8.77359 14.6666C8.75945 14.6267 8.72169 14.6 8.67933 14.6H4.97208C4.92903 14.6 4.89082 14.6275 4.87721 14.6684L4.32121 16.3364C4.1891 16.7327 3.81823 17 3.40048 17V17ZM5.54387 12.7684C5.52229 12.8331 5.57049 12.9 5.63874 12.9H7.963C8.03075 12.9 8.0789 12.834 8.05825 12.7695L6.923 9.22188C6.9093 9.17906 6.86949 9.15 6.82452 9.15V9.15C6.78002 9.15 6.74051 9.17848 6.72643 9.2207L5.54387 12.7684ZM15.106 17C14.3295 17 13.7 16.3705 13.7 15.594V15.594C13.7 15.2742 13.809 14.964 14.009 14.7146L18.75 8.8H14.8C14.3029 8.8 13.9 8.39706 13.9 7.9V7.9C13.9 7.40294 14.3029 7 14.8 7H19.5411C20.3192 7 20.95 7.63077 20.95 8.40887V8.40887C20.95 8.7269 20.8424 9.03558 20.6447 9.2847L15.95 15.2H20.1C20.5971 15.2 21 15.6029 21 16.1V16.1C21 16.5971 20.5971 17 20.1 17H15.106ZM10.2071 5C9.76165 5 9.53857 4.46143 9.85355 4.14645L11.6464 2.35355C11.8417 2.15829 12.1583 2.15829 12.3536 2.35355L14.1464 4.14645C14.4614 4.46143 14.2383 5 13.7929 5H10.2071ZM12.3536 21.6464C12.1583 21.8417 11.8417 21.8417 11.6464 21.6464L9.85355 19.8536C9.53857 19.5386 9.76165 19 10.2071 19H13.7929C14.2383 19 14.4614 19.5386 14.1464 19.8536L12.3536 21.6464Z" fill="black"/>
</svg>
