<svg width="64" height="64" viewBox="0 0 64 64" fill="none" xmlns="http://www.w3.org/2000/svg">
<path d="M32.2871 22.4788C33.0507 22.5961 33.2043 22.4425 33.3056 21.7205C33.5584 20.0348 34.0583 18.3957 34.7892 16.8559C35.7875 14.8028 37.3788 12.5459 39.6036 11.0357C41.4776 9.7793 44.5482 8.38851 46.9298 7.88403C48.6795 7.49833 50.4773 7.37896 52.2626 7.52994C55.4761 7.81897 57.2541 8.73515 58.1457 9.92009C58.4774 10.3627 58.6577 10.9099 58.6651 11.2629C58.6907 11.8527 58.4337 12.6217 57.5868 13.3779C56.7624 14.1052 55.0036 15.0257 52.605 15.8309C50.1156 16.6596 46.7144 17.5374 43.3259 18.3139C41.3611 18.7587 39.4232 19.3152 37.5217 19.9809C35.282 20.7414 34.6015 22.9747 35.9998 23.6563C38.0209 24.6407 39.2848 25.671 40.362 26.5466C41.9778 27.8713 43.8539 29.4263 46.1832 32.242C48.2939 34.8199 51.7464 39.7399 52.9889 44.5159C54.3637 49.7591 53.5041 54.7314 50.5358 56.1201C47.6273 57.4842 43.7504 55.5164 41.0296 52.6943C38.44 50.0172 36.6333 46.8624 34.9343 41.9978C33.4614 37.8158 32.8641 31.7514 32.8662 28.5795C32.8662 27.5225 32.8492 27.2996 32.8918 26.3397C32.991 25.5089 30.748 24.8209 28.3387 26.3717C25.5955 28.1358 22.9089 31.3333 21.3229 33.1902C20.6328 34.0008 19.6975 35.1921 18.7066 36.4421C17.4001 38.0803 15.9571 39.7868 14.6431 40.7414C12.6582 42.1866 9.47987 42.7828 7.25397 41.1947C6.01463 40.3137 5.3555 38.6392 5.33417 36.9402C5.31725 35.7662 5.61993 34.6096 6.20981 33.5944C6.9564 32.2847 8.184 30.879 10.1315 29.2685C12.1441 27.6142 15.3577 25.7488 18.5797 24.4487C23.4923 22.4713 28.7813 21.8495 32.2871 22.4777V22.4788Z" fill="black"/>
</svg>
